<svg id="Layer_1" data-name="Layer 1" xmlns="http://www.w3.org/2000/svg" viewBox="0 0 400 300" width="406" height="306" class="illustration styles_illustrationTablet__1DWOa"><path d="M169.38,120.71s-20.58,6.21-26.53,22.8-.58,47.5,23.3,66.28,61.89,3.9,61.89,3.9,26.11-35.27,15.12-60.69S214,101.93,169.38,120.71Z" fill="#68e1fd"></path><path d="M130,191.66s-10.88,43,5.46,43,44.24-.62,44.24-.62l-21-37.41Z" fill="#f4a28c"></path><path d="M171.31,120.78s-11.61,12.52,0,20.16,25.66-3.4,22.3-11.17-13.48-13.09-13.48-13.09Z" fill="#f4a28c"></path><path d="M171.31,120.78s-11.61,12.52,0,20.16,25.66-3.4,22.3-11.17-13.48-13.09-13.48-13.09Z" opacity="0.09"></path><path d="M141.55,146.06c-5.36,11.22-13.65,31-13.18,45.32l30.33,5.26s16.92-39.88.41-54.28A11.28,11.28,0,0,0,141.55,146.06Z" fill="#68e1fd"></path><path d="M141.55,146.06c-5.36,11.22-13.65,31-13.18,45.32l30.33,5.26s16.92-39.88.41-54.28A11.28,11.28,0,0,0,141.55,146.06Z" fill="#fff" opacity="0.54"></path><path d="M225.73,124.17c11.13,7.85,25.57,23,30.66,50.26l-27.72,10.31s-23.66-24.05-22-51.4A12.14,12.14,0,0,1,225.73,124.17Z" fill="#68e1fd"></path><path d="M225.73,124.17c11.13,7.85,25.57,23,30.66,50.26l-27.72,10.31s-23.66-24.05-22-51.4A12.14,12.14,0,0,1,225.73,124.17Z" fill="#fff" opacity="0.54"></path><path d="M93.36,219.72S81.14,216.39,78.48,205c0,0,18.93-3.82,19.47,15.72Z" fill="#68e1fd" opacity="0.58"></path><path d="M94.86,218.51s-8.54-13.5-1-26.11c0,0,14.4,9.14,8,26.14Z" fill="#68e1fd" opacity="0.73"></path><path d="M97.06,218.52s4.51-14.25,18.14-17c0,0,2.56,9.25-8.83,17Z" fill="#68e1fd"></path><polygon points="88.19 218.2 90.67 235.15 106.27 235.21 108.57 218.28 88.19 218.2" fill="#24285b"></polygon><path d="M162.47,105.51s2.74,19.55,13.13,18.94,4-22.29,4-22.29-1.4-11-7.57-11S157.87,92,162.47,105.51Z" fill="#f4a28c"></path><path d="M161.3,108l2.11,2s10.66-5.66,10.66-14.3c0,0,2,7.48,6.42,10.26,0,0,4.42-15.08-3.82-16.76,0,0-2.63-4.28-5.29-4.58-2.16-.25-13.46,3.27-14.25,13A13,13,0,0,0,161.3,108Z" fill="#24285b"></path><path d="M163.41,110s-5.52-.34-4.61,2.25.91,6.35,6.49,3.33Z" fill="#f4a28c"></path><path d="M173.57,130.1s-5.13,4.48,1.51,7.92,4.81,36.18,14.43,44.65,25.19,3.9,25.19,3.9L196.05,151.3l-3.69-17.63-9.47-1.84Z" opacity="0.09"></path><path d="M180.12,105.57s4.83-2.7,5.13,0,1.93,6.12-4.4,5.82Z" fill="#f4a28c"></path><path d="M187.2,126.58s-11.91-4.88-14.66,0,13.12,8.55,13.12,8.55Z" fill="#f4a28c"></path><path d="M187.2,126.58s-11.91-4.88-14.66,0,13.12,8.55,13.12,8.55Z" fill="#f4a28c"></path><path d="M255,174.93S267.84,209,252.72,217s-58.07-35.94-67.06-81.9l1.54-8.55s15.14,16.68,20.86,26.77S231.49,177,231.49,177Z" fill="#f4a28c"></path><polygon points="164.24 234.67 153.56 181.23 238.55 181.23 231.75 236.03 164.24 234.67" fill="#ffd200"></polygon><circle cx="196.04" cy="207.41" r="5.84" fill="#fff"></circle><rect x="73.94" y="233.45" width="236.19" height="16.78" fill="#e6e6e6"></rect><rect x="278.69" y="209.66" width="18.17" height="23.87" fill="#c1c1c1"></rect><path d="M282.38,215.65H276a6.87,6.87,0,0,0-6.87,6.87h0a6.86,6.86,0,0,0,6.87,6.87h6.41" fill="none" stroke="#c1c1c1" stroke-miterlimit="10" stroke-width="2"></path><circle cx="289.42" cy="222.58" r="5.32" fill="#e6e6e6"></circle><path d="M280.81,209.66s-4.69-12.86,7-15,14.18-6.41,7-15.27-5-15.27,2.11-16.49,17.54,11.64,22.73-4,15.58-10.06,19.55,0,11,25.94-10.39,27.16-11,16.43-18.62,19.36a105.56,105.56,0,0,1-13.27,4.19Z" fill="#e6e6e6" opacity="0.38"></path><path d="M280.69,59.06a11.4,11.4,0,0,0,.15-1.76A11.74,11.74,0,0,0,269.1,45.56a11.59,11.59,0,0,0-5.28,1.27c0-.42.07-.84.07-1.27a11.73,11.73,0,0,0-23.43-1A11.72,11.72,0,0,0,222.68,59h-.23a8.13,8.13,0,1,0,2.32,15.92,11.72,11.72,0,0,0,11.64,10.37,11.74,11.74,0,0,0,22.71-1,11.74,11.74,0,0,0,19.2-9.06s0-.06,0-.09a8.92,8.92,0,0,0,1.16.09,8.13,8.13,0,0,0,1.22-16.16Z" fill="#e6e6e6" opacity="0.38"></path><path d="M234.48,97.13a3.77,3.77,0,0,0,.18-.57,4,4,0,0,0-4.8-4.75,2.77,2.77,0,0,0,.12-.41,4,4,0,0,0-7.63-2.11,4,4,0,0,0-7,1.58,3.86,3.86,0,0,0,0,1.79l-.08,0A2.75,2.75,0,1,0,214.08,98a2.36,2.36,0,0,0,.79.07,4,4,0,0,0,3,4.3,4,4,0,0,0,7.54,1.42,4,4,0,0,0,7-1.52v0a2.29,2.29,0,0,0,.37.12,2.74,2.74,0,0,0,1.64-5.22Z" fill="#e6e6e6" opacity="0.38"></path><path d="M208.43,101.14c0-.12.08-.24.11-.37a2.54,2.54,0,0,0-1.91-3.06,2.48,2.48,0,0,0-1.18,0,2,2,0,0,0,.08-.26,2.55,2.55,0,0,0-4.92-1.36,2.55,2.55,0,0,0-4.47,1,2.48,2.48,0,0,0,0,1.15h0a1.77,1.77,0,1,0-.29,3.49,2.55,2.55,0,0,0,2,2.77,2.55,2.55,0,0,0,4.85.91,2.56,2.56,0,0,0,4.52-1v0l.24.08a1.77,1.77,0,0,0,1.06-3.36Z" fill="#e6e6e6" opacity="0.38"></path></svg>