<svg id="Layer_1" data-name="Layer 1" xmlns="http://www.w3.org/2000/svg" viewBox="0 0 400 300" width="406" height="306" class="illustration styles_illustrationTablet__1DWOa"><path d="M217.37,104.48s23.73,6,23.9,25.71-10.53,54.05,4.74,56.86,24.4-39.66,24.4-39.66l10.88,4.38s-11.58,72.57-51.6,60.59S217.37,104.48,217.37,104.48Z" fill="#68e1fd"></path><path d="M217.37,104.48s23.73,6,23.9,25.71-10.53,54.05,4.74,56.86,24.4-39.66,24.4-39.66l10.88,4.38s-11.58,72.57-51.6,60.59S217.37,104.48,217.37,104.48Z" fill="#fff" opacity="0.44"></path><ellipse cx="202.28" cy="230.74" rx="157.96" ry="14.45" fill="#e6e6e6" opacity="0.3"></ellipse><path d="M76.51,213.73S66.25,210.93,64,201.39c0,0,15.89-3.21,16.34,13.19Z" fill="#68e1fd" opacity="0.58"></path><path d="M77.76,212.72s-7.16-11.33-.85-21.92c0,0,12.07,7.67,6.71,21.94Z" fill="#68e1fd" opacity="0.73"></path><path d="M79.61,212.72s3.79-12,15.23-14.22c0,0,2.14,7.76-7.41,14.26Z" fill="#68e1fd"></path><polygon points="72.17 212.46 74.25 226.68 87.34 226.73 89.27 212.53 72.17 212.46" fill="#24285b"></polygon><polygon points="196.01 72.21 188.78 97.7 203.12 100.69 202.62 80.94 196.01 72.21" fill="#f4a28c"></polygon><path d="M202.92,85.25a9.57,9.57,0,0,1-4.37-3.36s-.37,4.84,4.35,10.22Z" fill="#ce8172" opacity="0.31"></path><path d="M188.78,97.71l8.5,1.76s38.9,4.19,40.48,26.15-20.39,78.06-20.39,78.06H158.43S111.2,91.9,188.78,97.71Z" fill="#68e1fd"></path><path d="M183.69,118.05s4.75,13.72-7.71,22.67-6.38,42.65,7.26,48.09-8.53,17.08-18,12.31-10.77-8-10.77-8-8.77-25.35-9.7-41.52S183.69,118.05,183.69,118.05Z" opacity="0.09"></path><path d="M158.43,203.68s-33.18-11.8-45.29-6.76-5.26,28.52,34.23,29.68,97.93,7.61,109.52-6.67S224.77,198,158.43,203.68Z" fill="#24285b"></path><path d="M183.69,118.05c0-12.07-12.23-20.32-23.71-16.55-10,3.27-22.15,9.34-29.54,20.44-14.22,21.32-46.7,83.65,35.75,86.05l2.42-9.18S119.12,185.12,141,156.16C158,133.64,183.74,135.15,183.69,118.05Z" fill="#68e1fd"></path><path d="M183.69,118.05c0-12.07-12.23-20.32-23.71-16.55-10,3.27-22.15,9.34-29.54,20.44-14.22,21.32-46.7,83.65,35.75,86.05l2.42-9.18S119.12,185.12,141,156.16C158,133.64,183.74,135.15,183.69,118.05Z" fill="#fff" opacity="0.44"></path><polygon points="166.51 209.87 207.52 209.87 217.37 165.64 160.19 165.64 166.51 209.87" fill="#ffd200"></polygon><path d="M273,148.41s.62-10.5,4.83-13.49,3.51,4.57,3.51,4.57,4.21-4.92,7.72-2.63-7.72,14.91-7.72,14.91Z" fill="#f4a28c"></path><rect x="268.45" y="97.1" width="37.48" height="48.09" transform="translate(42.89 -72.43) rotate(15.52)" fill="#e6e6e6"></rect><rect x="272.34" y="120.86" width="24.78" height="18.25" transform="translate(45.16 -71.45) rotate(15.52)" fill="#c1c1c1"></rect><rect x="295.14" y="106.58" width="7.04" height="12.28" transform="translate(41.05 -75.8) rotate(15.52)" fill="#c1c1c1" opacity="0.24"></rect><path d="M210.86,73s-.72,8.06-3,13.1a4.07,4.07,0,0,1-5.4,2c-2.52-1.18-5.59-3.51-5.72-7.87l-1.15-7.38a7.27,7.27,0,0,1,4.51-7.08C205.17,63.3,211.54,68.07,210.86,73Z" fill="#f4a28c"></path><path d="M208.83,72.93a31.48,31.48,0,0,1-7.24-1.87,6.75,6.75,0,0,1-1.3,7.29,5.48,5.48,0,0,1-6.91,1l2-10.21a8.23,8.23,0,0,1,5.39-6.5,29.4,29.4,0,0,1,3.71-1.06c3.16-.66,7.12,2.07,10.11.55a2,2,0,0,1,2.83,1.8c-.1,3.19-1.52,8-6,8.95A7.56,7.56,0,0,1,208.83,72.93Z" fill="#24285b"></path><path d="M201.19,78.27s.48-3.08-1.86-3.25-3.08,4.26,0,5.23Z" fill="#f4a28c"></path><path d="M210.14,78l1.68,3.47a1.29,1.29,0,0,1-1.16,1.85l-3.14,0Z" fill="#f4a28c"></path><circle cx="187.77" cy="184.73" r="4.08" fill="#fff"></circle><path d="M160.19,219.08s-16.73,7.25-12.32,11.66,15.71-3.47,15.71-3.47Z" fill="#68e1fd"></path><path d="M212.54,220.92s16.73,7.24,12.31,11.65-15.71-3.47-15.71-3.47Z" fill="#68e1fd"></path><circle cx="285.11" cy="108.25" r="6.32" fill="#c1c1c1"></circle><circle cx="286.69" cy="127.03" r="2.02" fill="#e6e6e6"></circle><polygon points="272.95 133.26 281.29 125.01 283.58 133.98 289.69 130.63 292.7 138.87 272.95 133.26" fill="#e6e6e6"></polygon><rect x="275.47" y="187.75" width="39.65" height="39.66" fill="#c1c1c1"></rect><rect x="298.13" y="187.75" width="39.65" height="39.66" fill="#e6e6e6"></rect></svg>